<?xml version="1.0" encoding="utf-8"?>
<!-- Generator: Adobe Illustrator 27.0.0, SVG Export Plug-In . SVG Version: 6.00 Build 0)  -->
<svg version="1.1" id="Layer_1" xmlns="http://www.w3.org/2000/svg" xmlns:xlink="http://www.w3.org/1999/xlink" x="0px" y="0px"
	 viewBox="0 0 640 480" style="enable-background:new 0 0 640 480;" xml:space="preserve">
<style type="text/css">
	.st0{fill:#4EBFEC;}
	.st1{fill:#0E2B58;}
</style>
<g>
	<g>
		<path class="st0" d="M222.92,265.54h-76.75v0c0-14.11,11.44-25.54,25.54-25.54h25.66L222.92,265.54z"/>
		<path class="st1" d="M248.43,265.54c0,7.05-2.86,13.44-7.49,18.07c-4.61,4.63-11,7.49-18.05,7.49h-76.72v-25.56h76.75L197.38,240
			h25.51C236.99,240,248.43,251.44,248.43,265.54z"/>
		<path class="st0" d="M171.83,214.46h76.75v0c0,14.11-11.44,25.54-25.54,25.54h-25.66L171.83,214.46z"/>
		<path class="st1" d="M146.32,214.46c0-7.05,2.86-13.44,7.49-18.07c4.61-4.63,11-7.49,18.05-7.49h76.72v25.56h-76.75L197.38,240
			h-25.51C157.76,240,146.32,228.56,146.32,214.46z"/>
	</g>
	<g>
		<g>
			<path class="st1" d="M275.85,237.8c-3.49,0-6.43-0.78-8.81-2.34c-2.38-1.56-4.06-3.68-5.04-6.37l5.94-3.48
				c1.38,3.59,4.08,5.39,8.11,5.39c1.95,0,3.37-0.35,4.28-1.06c0.91-0.7,1.36-1.59,1.36-2.67c0-1.24-0.55-2.21-1.66-2.9
				c-1.11-0.69-3.09-1.44-5.94-2.24c-1.58-0.47-2.91-0.94-4-1.41c-1.09-0.47-2.18-1.1-3.27-1.89c-1.09-0.79-1.92-1.79-2.49-3
				c-0.57-1.21-0.86-2.62-0.86-4.23c0-3.19,1.13-5.73,3.4-7.63c2.27-1.9,4.99-2.85,8.18-2.85c2.85,0,5.36,0.7,7.53,2.09
				c2.17,1.39,3.85,3.33,5.06,5.82l-5.84,3.37c-1.41-3.02-3.66-4.53-6.75-4.53c-1.44,0-2.58,0.33-3.4,0.98
				c-0.82,0.66-1.23,1.5-1.23,2.54c0,1.11,0.46,2.01,1.38,2.69c0.92,0.69,2.69,1.44,5.31,2.24c1.07,0.34,1.89,0.6,2.44,0.78
				c0.55,0.18,1.31,0.47,2.27,0.86s1.7,0.75,2.22,1.08c0.52,0.34,1.12,0.79,1.79,1.36c0.67,0.57,1.18,1.16,1.54,1.76
				c0.35,0.6,0.65,1.34,0.91,2.19c0.25,0.86,0.38,1.79,0.38,2.8c0,3.26-1.18,5.84-3.55,7.76
				C282.73,236.84,279.65,237.8,275.85,237.8z"/>
			<path class="st1" d="M322.59,232.49c-3.56,3.54-7.89,5.31-12.99,5.31c-5.1,0-9.43-1.77-12.97-5.31
				c-3.54-3.54-5.31-7.88-5.31-13.02c0-5.14,1.77-9.48,5.31-13.02c3.54-3.54,7.87-5.31,12.97-5.31c5.1,0,9.43,1.77,12.99,5.31
				c3.56,3.54,5.34,7.88,5.34,13.02C327.93,224.61,326.15,228.95,322.59,232.49z M301.49,227.75c2.18,2.17,4.89,3.25,8.11,3.25
				c3.22,0,5.93-1.08,8.11-3.25c2.18-2.17,3.27-4.93,3.27-8.29c0-3.36-1.09-6.13-3.27-8.31c-2.18-2.18-4.89-3.27-8.11-3.27
				c-3.22,0-5.93,1.09-8.11,3.27c-2.18,2.18-3.27,4.95-3.27,8.31C298.21,222.83,299.31,225.59,301.49,227.75z"/>
			<path class="st1" d="M352.15,237.1l-7.13-12.24h-5.26v12.24h-6.95v-35.26h14.1c3.26,0,6.03,1.14,8.31,3.42
				c2.28,2.28,3.42,5.04,3.42,8.26c0,2.18-0.62,4.21-1.86,6.07c-1.24,1.86-2.89,3.27-4.94,4.21l7.81,13.3H352.15z M339.76,208.34
				v10.42h7.15c1.31,0,2.43-0.51,3.37-1.54c0.94-1.02,1.41-2.26,1.41-3.7c0-1.44-0.47-2.67-1.41-3.68
				c-0.94-1.01-2.07-1.51-3.37-1.51H339.76z"/>
			<path class="st1" d="M386.3,201.84v6.65h-9.52v28.61h-6.95v-28.61h-9.47v-6.65H386.3z"/>
			<path class="st1" d="M397.13,230.45h14.86v6.65h-21.81v-35.26h21.56v6.65h-14.61v7.5h13.35v6.55h-13.35V230.45z"/>
			<path class="st1" d="M416.87,201.84h6.95v35.26h-6.95V201.84z"/>
			<path class="st1" d="M460.04,232.49c-3.56,3.54-7.89,5.31-12.99,5.31c-5.1,0-9.43-1.77-12.97-5.31
				c-3.54-3.54-5.31-7.88-5.31-13.02c0-5.14,1.77-9.48,5.31-13.02c3.54-3.54,7.87-5.31,12.97-5.31c5.1,0,9.43,1.77,12.99,5.31
				c3.56,3.54,5.34,7.88,5.34,13.02C465.38,224.61,463.6,228.95,460.04,232.49z M438.93,227.75c2.18,2.17,4.89,3.25,8.11,3.25
				s5.93-1.08,8.11-3.25c2.18-2.17,3.27-4.93,3.27-8.29c0-3.36-1.09-6.13-3.27-8.31c-2.18-2.18-4.89-3.27-8.11-3.27
				s-5.93,1.09-8.11,3.27c-2.18,2.18-3.27,4.95-3.27,8.31C435.66,222.83,436.75,225.59,438.93,227.75z"/>
			<path class="st1" d="M481.04,237.8c-3.49,0-6.43-0.78-8.81-2.34c-2.38-1.56-4.06-3.68-5.04-6.37l5.94-3.48
				c1.38,3.59,4.08,5.39,8.11,5.39c1.95,0,3.38-0.35,4.28-1.06s1.36-1.59,1.36-2.67c0-1.24-0.55-2.21-1.66-2.9
				c-1.11-0.69-3.09-1.44-5.94-2.24c-1.58-0.47-2.91-0.94-4-1.41c-1.09-0.47-2.18-1.1-3.27-1.89c-1.09-0.79-1.92-1.79-2.49-3
				c-0.57-1.21-0.86-2.62-0.86-4.23c0-3.19,1.13-5.73,3.4-7.63c2.27-1.9,4.99-2.85,8.18-2.85c2.85,0,5.36,0.7,7.53,2.09
				c2.17,1.39,3.85,3.33,5.06,5.82l-5.84,3.37c-1.41-3.02-3.66-4.53-6.75-4.53c-1.44,0-2.58,0.33-3.4,0.98
				c-0.82,0.66-1.23,1.5-1.23,2.54c0,1.11,0.46,2.01,1.39,2.69s2.69,1.44,5.31,2.24c1.07,0.34,1.89,0.6,2.44,0.78
				c0.55,0.18,1.31,0.47,2.27,0.86c0.96,0.39,1.69,0.75,2.22,1.08c0.52,0.34,1.12,0.79,1.79,1.36c0.67,0.57,1.18,1.16,1.54,1.76
				c0.35,0.6,0.65,1.34,0.91,2.19c0.25,0.86,0.38,1.79,0.38,2.8c0,3.26-1.18,5.84-3.55,7.76
				C487.91,236.84,484.83,237.8,481.04,237.8z"/>
			<path class="st1" d="M292.64,275.68l-5.55,3.18l-3.22-3.48c-2.73,2.02-5.89,3.03-9.49,3.03c-3.64,0-6.61-0.95-8.91-2.85
				c-2.31-1.9-3.46-4.45-3.46-7.65c0-2.09,0.51-4.02,1.51-5.8c1.01-1.78,2.47-3.23,4.39-4.34c-1.14-1.82-1.72-3.79-1.72-5.91
				c0-2.99,1.04-5.44,3.13-7.35c2.09-1.9,4.73-2.85,7.93-2.85c2.52,0,4.79,0.65,6.79,1.94c2,1.3,3.49,3.17,4.47,5.63l-5.96,3.43
				c-0.98-2.83-2.71-4.24-5.2-4.24c-1.21,0-2.21,0.35-3,1.06c-0.79,0.71-1.19,1.6-1.19,2.68c0,0.94,0.23,1.8,0.68,2.57
				c0.45,0.77,1.19,1.7,2.2,2.78l7.56,8.27c0.74-1.58,1.31-3.53,1.72-5.84l5.85,3.33c-0.64,2.73-1.67,5.2-3.08,7.43L292.64,275.68z
				 M274.84,272c1.75,0,3.32-0.43,4.71-1.28l-7.65-8.26c-0.07-0.07-0.1-0.12-0.1-0.15c-1.85,1.14-2.77,2.78-2.77,4.9
				c0,1.45,0.5,2.61,1.49,3.48C271.51,271.56,272.95,272,274.84,272z"/>
			<g>
				<path class="st1" d="M314.43,249.48c2.73,0,5.04,0.92,6.91,2.76c1.87,1.84,2.8,4.1,2.8,6.79c0,2.68-0.93,4.94-2.8,6.78
					c-1.87,1.84-4.17,2.76-6.91,2.76h-5v9.34h-5.61v-28.44H314.43z M314.43,263.33c1.19,0,2.18-0.41,2.97-1.24
					c0.79-0.83,1.18-1.85,1.18-3.07c0-1.25-0.39-2.28-1.18-3.09c-0.79-0.81-1.77-1.22-2.97-1.22h-5v8.61H314.43z"/>
				<path class="st1" d="M347.46,277.91l-5.75-9.87h-4.25v9.87h-5.61v-28.44h11.38c2.63,0,4.86,0.92,6.7,2.76
					c1.84,1.84,2.76,4.06,2.76,6.66c0,1.76-0.5,3.39-1.5,4.9c-1,1.5-2.33,2.63-3.98,3.39l6.3,10.73H347.46z M337.46,254.72v8.41
					h5.77c1.06,0,1.96-0.41,2.72-1.24c0.76-0.83,1.14-1.82,1.14-2.99s-0.38-2.15-1.14-2.97c-0.76-0.81-1.67-1.22-2.72-1.22H337.46z"
					/>
				<path class="st1" d="M366.47,272.55h11.98v5.36h-17.59v-28.44h17.39v5.36h-11.78v6.05h10.77v5.28h-10.77V272.55z M369.43,244.6
					l-1.79,2.64h-5.2l4.31-5.89h5.32l4.31,5.89h-5.2L369.43,244.6z"/>
				<path class="st1" d="M414.29,249.48v28.44h-5.57v-18.44l-8.02,13.19l-0.65,0.02l-7.98-13.15v18.38h-5.61v-28.44h5.77l8.15,13.43
					l8.11-13.43H414.29z"/>
				<path class="st1" d="M423.63,249.48h5.61v28.44h-5.61V249.48z"/>
				<path class="st1" d="M462.51,274.2c-2.87,2.86-6.36,4.29-10.48,4.29c-4.12,0-7.6-1.43-10.46-4.29
					c-2.86-2.86-4.29-6.36-4.29-10.5c0-4.14,1.43-7.64,4.29-10.5c2.86-2.86,6.34-4.29,10.46-4.29c4.12,0,7.61,1.43,10.48,4.29
					c2.87,2.86,4.31,6.36,4.31,10.5C466.82,267.84,465.38,271.34,462.51,274.2z M445.49,270.38c1.76,1.75,3.94,2.62,6.54,2.62
					c2.6,0,4.78-0.87,6.54-2.62c1.76-1.75,2.64-3.97,2.64-6.68c0-2.71-0.88-4.94-2.64-6.7c-1.76-1.76-3.94-2.64-6.54-2.64
					c-2.6,0-4.78,0.88-6.54,2.64c-1.76,1.76-2.64,4-2.64,6.7C442.85,266.4,443.73,268.63,445.49,270.38z"/>
				<path class="st1" d="M483.51,278.48c-2.82,0-5.19-0.63-7.11-1.89c-1.92-1.26-3.28-2.97-4.06-5.14l4.79-2.8
					c1.11,2.9,3.29,4.35,6.54,4.35c1.57,0,2.72-0.28,3.45-0.85c0.73-0.57,1.1-1.29,1.1-2.15c0-1-0.45-1.78-1.34-2.34
					c-0.89-0.56-2.49-1.16-4.79-1.81c-1.27-0.38-2.35-0.76-3.23-1.14c-0.88-0.38-1.76-0.89-2.64-1.52
					c-0.88-0.64-1.55-1.44-2.01-2.42c-0.46-0.97-0.69-2.11-0.69-3.41c0-2.57,0.91-4.62,2.74-6.15c1.83-1.53,4.03-2.3,6.6-2.3
					c2.3,0,4.33,0.56,6.07,1.69c1.75,1.12,3.11,2.69,4.08,4.69l-4.71,2.72c-1.14-2.44-2.95-3.66-5.44-3.66
					c-1.16,0-2.08,0.26-2.74,0.79c-0.66,0.53-1,1.21-1,2.05c0,0.89,0.37,1.62,1.12,2.17c0.74,0.56,2.17,1.16,4.29,1.81
					c0.87,0.27,1.52,0.48,1.97,0.63c0.45,0.15,1.06,0.38,1.83,0.69c0.77,0.31,1.37,0.6,1.79,0.87c0.42,0.27,0.9,0.64,1.44,1.1
					c0.54,0.46,0.96,0.93,1.24,1.42c0.28,0.49,0.53,1.08,0.73,1.77c0.2,0.69,0.3,1.44,0.3,2.25c0,2.63-0.95,4.71-2.86,6.26
					C489.06,277.71,486.57,278.48,483.51,278.48z"/>
			</g>
		</g>
	</g>
</g>
</svg>
